<svg width="32" height="32" viewBox="0 0 32 32" fill="none" xmlns="http://www.w3.org/2000/svg">
<mask id="mask0_1_253" style="mask-type:alpha" maskUnits="userSpaceOnUse" x="6" y="6" width="20" height="20">
<path d="M26 16C26 21.5228 21.5228 26 16 26C10.4772 26 6 21.5228 6 16C6 10.4772 10.4772 6 16 6C21.5228 6 26 10.4772 26 16Z" fill="white"/>
</mask>
<g mask="url(#mask0_1_253)">
<g filter="url(#filter0_f_1_253)">
<path d="M32 10.5C32 16.299 27.299 21 21.5 21C15.701 21 11 16.299 11 10.5C11 4.70101 15.701 0 21.5 0C27.299 0 32 4.70101 32 10.5Z" fill="#87A9FF"/>
</g>
<g filter="url(#filter1_f_1_253)">
<path d="M16 12.5C16 18.8513 10.8513 24 4.5 24C-1.85127 24 -7 18.8513 -7 12.5C-7 6.14873 -1.85127 1 4.5 1C10.8513 1 16 6.14873 16 12.5Z" fill="#71FF87"/>
</g>
<g filter="url(#filter2_f_1_253)">
<path d="M28 26.5C28 32.299 23.299 37 17.5 37C11.701 37 7 32.299 7 26.5C7 20.701 11.701 16 17.5 16C23.299 16 28 20.701 28 26.5Z" fill="#FF7272"/>
</g>
<path fill-rule="evenodd" clip-rule="evenodd" d="M16 25C20.9706 25 25 20.9706 25 16C25 11.0294 20.9706 7 16 7C11.0294 7 7 11.0294 7 16C7 20.9706 11.0294 25 16 25ZM16 26C21.5228 26 26 21.5228 26 16C26 10.4772 21.5228 6 16 6C10.4772 6 6 10.4772 6 16C6 21.5228 10.4772 26 16 26Z" fill="black" fill-opacity="0.06"/>
</g>
<defs>
<filter id="filter0_f_1_253" x="3" y="-8" width="37" height="37" filterUnits="userSpaceOnUse" color-interpolation-filters="sRGB">
<feFlood flood-opacity="0" result="BackgroundImageFix"/>
<feBlend mode="normal" in="SourceGraphic" in2="BackgroundImageFix" result="shape"/>
<feGaussianBlur stdDeviation="4" result="effect1_foregroundBlur_1_253"/>
</filter>
<filter id="filter1_f_1_253" x="-15" y="-7" width="39" height="39" filterUnits="userSpaceOnUse" color-interpolation-filters="sRGB">
<feFlood flood-opacity="0" result="BackgroundImageFix"/>
<feBlend mode="normal" in="SourceGraphic" in2="BackgroundImageFix" result="shape"/>
<feGaussianBlur stdDeviation="4" result="effect1_foregroundBlur_1_253"/>
</filter>
<filter id="filter2_f_1_253" x="-1" y="8" width="37" height="37" filterUnits="userSpaceOnUse" color-interpolation-filters="sRGB">
<feFlood flood-opacity="0" result="BackgroundImageFix"/>
<feBlend mode="normal" in="SourceGraphic" in2="BackgroundImageFix" result="shape"/>
<feGaussianBlur stdDeviation="4" result="effect1_foregroundBlur_1_253"/>
</filter>
</defs>
</svg>
